<svg width="894" height="591" viewBox="0 0 894 591" fill="none" xmlns="http://www.w3.org/2000/svg">
<path fill-rule="evenodd" clip-rule="evenodd" d="M630.238 0.516594C653.834 -1.05408 677.533 0.961723 700.526 6.49804L700.527 6.49706C700.568 6.5068 700.609 6.51758 700.65 6.52734C700.713 6.54262 700.777 6.55692 700.84 6.57226L700.839 6.57421C721.907 11.6156 741.872 20.4817 759.738 32.7383L759.739 32.7373C771.183 40.5713 781.259 50.1501 789.627 61.0801C791.954 63.5238 794.418 66.1508 796.941 68.8721C806.138 78.7922 817.362 91.2793 828.301 103.699C839.236 116.114 850.222 128.842 858.914 139.251C863.221 144.409 867.273 149.365 870.575 153.6C871.743 155.097 878.267 163.173 882.703 171.881L883.126 172.726L883.214 172.908C894.774 196.623 897.137 223.78 889.843 249.139C889.815 249.237 889.786 249.337 889.757 249.436C882.481 274.318 866.616 295.796 845.007 310.071C844.974 310.093 844.941 310.115 844.908 310.137C843.688 310.939 842.456 311.719 841.212 312.479C855.436 331.004 859.904 356.067 851.439 379.197C839.413 412.057 826.19 439.165 807.816 462.672C789.223 486.459 768.328 502.703 747.24 517.176L747.239 517.175C725.488 532.106 701.887 544.146 677.031 552.992L677.032 552.993C676.99 553.008 676.948 553.022 676.906 553.037C676.884 553.045 676.862 553.054 676.839 553.062L676.838 553.061C652.959 561.599 627.989 566.705 602.674 568.228C572.837 570.276 542.904 565.876 514.919 555.321C514.891 555.311 514.862 555.3 514.835 555.289C500.49 549.858 488.785 540.002 485.632 537.427C479.58 532.483 473.053 526.597 466.709 520.645C463.833 517.947 460.851 515.097 457.794 512.136C444.496 525.605 429.63 537.455 413.502 547.423L413.501 547.422C394.242 559.344 373.618 568.904 352.075 575.899C330.413 583.1 307.899 587.428 285.11 588.77C284.889 588.783 284.667 588.795 284.446 588.806C269.219 589.557 253.961 589.376 238.756 588.265C238.737 588.263 238.717 588.262 238.697 588.261C224.276 587.194 209.93 585.3 195.729 582.593C187.066 587.022 177.477 589.649 167.538 590.172L153.67 590.9C132.212 592.028 111.424 583.239 97.2847 567.059L26.272 485.795C22.2478 482.576 18.5521 478.89 15.272 474.777C1.18392 457.111 -3.50983 433.731 2.66755 411.996L34.9254 298.498C40.3017 279.582 53.1887 264.287 69.8736 255.574C65.6153 244.561 63.1607 232.856 62.6822 220.907C62.6502 220.108 62.6321 219.307 62.6275 218.507C62.5351 202.359 64.8895 186.292 69.607 170.85C76.0099 149.142 86.4991 128.857 100.513 111.085C114.099 93.7107 130.29 78.5416 148.511 66.1133C166.742 53.6565 186.552 43.6826 207.416 36.4521C207.441 36.4433 207.467 36.4336 207.492 36.4248C207.546 36.4059 207.601 36.3861 207.656 36.3672V36.3691C229.728 28.681 252.787 24.1889 276.132 23.0322C276.526 23.0127 276.92 22.9962 277.314 22.9834C287.585 22.6483 297.867 23.1442 308.058 24.459C316.607 25.4698 325.181 26.598 333.779 27.8447C337.202 28.341 340.507 28.8265 343.692 29.2988C354.049 22.3843 366.179 18.2799 378.88 17.6113L392.73 16.8828C408.688 16.043 424.238 20.6889 436.961 29.7295C442.634 33.3018 447.823 37.7073 452.334 42.8613L464.987 57.3184C486.936 42.594 510.508 30.403 535.255 21C565.657 9.2765 597.704 2.36628 630.238 0.516594Z" fill="black"/>
<path fill-rule="evenodd" clip-rule="evenodd" d="M382.56 87.5146C379.168 91.8166 375.163 95.598 370.671 98.7375C367.233 100.621 363.391 101.649 359.471 101.733C354.878 101.686 350.298 101.242 345.782 100.405C339.163 99.3866 331.813 98.2915 323.734 97.12C315.654 95.9484 307.608 94.89 299.595 93.9448C292.968 93.0623 286.279 92.7283 279.597 92.9463C262.859 93.7756 246.327 97.0038 230.51 102.532C215.45 107.734 201.154 114.923 188.003 123.909C175.674 132.311 164.727 142.575 155.555 154.333C146.933 165.242 140.506 177.712 136.626 191.057C133.922 199.818 132.574 208.939 132.626 218.106C132.949 226.165 135.819 233.914 140.826 240.243C147.461 248.373 155.56 255.193 164.704 260.352C178.649 268.408 193.234 275.304 208.311 280.971C226.61 288.446 241.406 295.133 252.698 301.031C262.025 305.59 270.682 311.406 278.427 318.314C283.71 322.945 287.319 329.184 288.696 336.067C289.616 343.161 288.982 350.37 286.836 357.195C284.79 364.148 281.332 370.606 276.677 376.167C271.559 382.343 265.502 387.68 258.728 391.983C251.319 396.721 243.353 400.527 235.01 403.315C226.179 406.306 216.975 408.057 207.661 408.517C195.007 409.315 182.31 407.899 170.144 404.334C159.123 401.147 148.981 395.48 140.496 387.769C131.957 379.728 125.491 369.746 121.647 358.673C117.069 345.25 115.193 331.056 116.127 316.906L102.258 317.635L70.0004 431.133L83.8694 430.404C86.0113 427.668 88.6814 425.388 91.7215 423.7C94.7616 422.013 98.11 420.951 101.568 420.579C104.852 420.426 108.142 420.54 111.408 420.919C114.881 421.305 118.837 421.95 123.277 422.856C136.663 425.664 150.223 427.578 163.864 428.587C176.223 429.49 188.625 429.637 201.002 429.026C217.677 428.045 234.15 424.879 249.998 419.611C266.387 414.33 282.072 407.078 296.705 398.013C310.828 389.285 323.578 378.518 334.543 366.062C344.956 354.469 352.625 340.686 356.982 325.733C359.572 317.116 360.255 308.04 358.981 299.133C357.413 290.133 353.337 281.755 347.222 274.96C339.227 266.117 329.936 258.535 319.664 252.474C305.253 243.882 290.112 236.575 274.417 230.637C258.443 224.527 242.799 217.588 227.55 209.849C218.305 205.354 209.771 199.527 202.222 192.555C197.415 188.244 194.182 182.458 193.032 176.11C192.416 170.094 193.018 164.016 194.802 158.237C196.625 152.489 199.745 147.235 203.921 142.881C208.936 137.426 214.732 132.742 221.12 128.982C228.467 124.633 236.283 121.129 244.419 118.537C253.396 115.635 262.721 113.939 272.147 113.495C283.503 112.709 294.913 113.492 306.055 115.822C315.234 117.77 323.712 122.17 330.583 128.552C337.753 135.698 343.001 144.534 345.842 154.243C349.776 167.751 351.795 181.743 351.842 195.81L365.701 195.081L396.409 86.7857L382.56 87.5146Z" fill="white"/>
<path d="M668.051 306.742C681.738 293.991 694.334 280.12 705.709 265.275C684.36 323.607 664.978 343.967 627.634 369.596C610.843 381.125 592.616 390.416 573.417 397.235C555.598 403.622 536.952 407.422 518.051 408.517C498.185 409.906 478.255 406.986 459.625 399.96C442.972 393.655 428.343 382.958 417.298 369.007C405.987 354.109 398.785 336.51 396.409 317.965C393.584 294.693 395.776 271.086 402.838 248.73C409.937 223.745 421.521 200.256 437.026 179.405C452.518 158.384 470.998 139.732 491.883 124.039C512.746 108.366 535.717 95.7076 560.118 86.4361C583.891 77.2303 608.966 71.8156 634.423 70.3905C651.187 69.2269 668.03 70.6481 684.36 74.6041C697.186 77.6487 709.337 83.0381 720.198 90.5C728.788 96.3803 735.711 104.377 740.297 113.715C744.272 121.871 745.084 131.207 742.576 139.925C739.954 148.895 734.232 156.646 726.427 161.802C717.118 167.929 706.257 171.288 695.109 171.487C689.311 171.858 683.49 171.59 677.751 170.688C673.146 170.06 668.809 168.158 665.231 165.197C661.823 162.035 659.594 157.81 658.912 153.215C657.945 146.487 658.206 139.64 659.682 133.005C661.287 127.745 661.411 122.145 660.041 116.82C658.67 111.494 655.858 106.647 651.912 102.811C640.747 95.356 627.191 92.3459 613.915 94.3741C597.865 95.1226 582.122 99.0281 567.588 105.867C553.266 112.656 540.106 121.656 528.59 132.536C516.821 143.638 506.718 156.376 498.592 170.359C490.318 184.465 483.871 199.563 479.404 215.291C474.3 232.533 472.06 250.494 472.774 268.46C473.255 284.047 477.265 299.324 484.503 313.142C491.39 325.921 501.856 336.42 514.621 343.356C529.76 351.062 546.779 354.316 563.698 352.742C575.406 352.132 587.02 350.319 598.356 347.33C610.351 344.068 621.873 339.269 632.634 333.052C645.376 325.614 657.254 316.79 668.051 306.742Z" fill="white"/>
</svg>
