<svg width="130" height="86" viewBox="0 0 130 86" fill="none" xmlns="http://www.w3.org/2000/svg">
<g clip-path="url(#clip0_6_34)">
<mask id="mask0_6_34" style="mask-type:luminance" maskUnits="userSpaceOnUse" x="0" y="0" width="130" height="86">
<path fill-rule="evenodd" clip-rule="evenodd" d="M91.6453 0.0751728C95.0765 -0.153386 98.5227 0.139946 101.866 0.945569L101.866 0.945427C101.872 0.946844 101.878 0.948413 101.884 0.949833C101.893 0.952056 101.903 0.954137 101.912 0.956369L101.912 0.956653C104.975 1.69026 107.878 2.98042 110.476 4.76395L110.477 4.7638C112.141 5.90378 113.606 7.29765 114.823 8.88814C115.161 9.24373 115.519 9.626 115.886 10.022C117.224 11.4655 118.856 13.2826 120.446 15.0899C122.037 16.8965 123.634 18.7486 124.898 20.2633C125.524 21.0138 126.114 21.735 126.594 22.3513C126.764 22.5691 127.712 23.7443 128.357 25.0114L128.419 25.1344L128.432 25.1609C130.113 28.6118 130.456 32.5636 129.396 36.2537C129.391 36.268 129.387 36.2825 129.383 36.2969C128.325 39.9177 126.018 43.0431 122.876 45.1203C122.871 45.1235 122.866 45.1267 122.861 45.1299C122.684 45.2466 122.505 45.3601 122.324 45.4707C124.392 48.1664 125.042 51.8135 123.811 55.1793C122.062 59.9609 120.139 63.9056 117.468 67.3262C114.764 70.7876 111.726 73.1514 108.659 75.2574L108.659 75.2573C105.496 77.43 102.064 79.182 98.4497 80.4692L98.4498 80.4694C98.4437 80.4715 98.4376 80.4736 98.4315 80.4758C98.4283 80.4769 98.4251 80.4782 98.4218 80.4794L98.4216 80.4793C94.9493 81.7217 91.3183 82.4647 87.6372 82.6863C83.2984 82.9843 78.9458 82.344 74.8764 80.8081C74.8723 80.8067 74.8681 80.8051 74.8642 80.8035C72.7782 80.0132 71.0761 78.579 70.6176 78.2043C69.7376 77.4848 68.7885 76.6283 67.866 75.7622C67.4478 75.3696 67.0141 74.9549 66.5696 74.524C64.6359 76.484 62.4742 78.2083 60.1289 79.6588L60.1288 79.6587C57.3283 81.3935 54.3292 82.7847 51.1966 83.8026C48.0466 84.8504 44.7728 85.4802 41.4589 85.6755C41.4268 85.6774 41.3945 85.6791 41.3624 85.6807C39.1482 85.79 36.9295 85.7637 34.7184 85.602C34.7157 85.6017 34.7128 85.6016 34.7099 85.6014C32.6128 85.4462 30.5267 85.1706 28.4617 84.7766C27.202 85.4211 25.8076 85.8034 24.3623 85.8795L22.3457 85.9854C19.2255 86.1496 16.2026 84.8706 14.1465 82.5162L3.82031 70.691C3.23514 70.2226 2.69773 69.6862 2.22076 69.0877C0.172159 66.517 -0.510378 63.1148 0.387899 59.952L5.07864 43.4363C5.86043 40.6837 7.73437 38.458 10.1606 37.1901C9.54137 35.5876 9.18444 33.8843 9.11486 32.1455C9.11021 32.0293 9.10758 31.9127 9.10691 31.7963C9.09347 29.4465 9.43583 27.1085 10.1218 24.8614C11.0529 21.7026 12.5782 18.7508 14.616 16.1647C16.5916 13.6364 18.946 11.4291 21.5956 9.62055C24.2466 7.80788 27.1272 6.35652 30.1612 5.30437C30.1648 5.30309 30.1686 5.30167 30.1722 5.30039C30.1801 5.29764 30.1881 5.29476 30.1961 5.29201V5.29229C33.4056 4.17355 36.7587 3.51987 40.1534 3.35156C40.2107 3.34872 40.268 3.34632 40.3253 3.34445C41.8188 3.29569 43.314 3.36785 44.7959 3.55918C46.0391 3.70627 47.2858 3.87044 48.5361 4.05185C49.0338 4.12407 49.5144 4.19472 49.9776 4.26345C51.4836 3.25728 53.2475 2.66002 55.0944 2.56273L57.1084 2.45672C59.4289 2.33451 61.6901 3.01057 63.5402 4.32612C64.3651 4.84595 65.1197 5.48702 65.7756 6.23701L67.6156 8.34075C70.8073 6.19811 74.2349 4.42412 77.8335 3.05584C82.2544 1.34988 86.9145 0.344332 91.6453 0.0751728Z" fill="white"/>
<path d="M53.178 28.3875L51.1627 28.4935C51.1558 26.4465 50.8622 24.4105 50.2902 22.4449C49.8771 21.0321 49.114 19.7462 48.0714 18.7064C47.0722 17.7777 45.8394 17.1375 44.5046 16.854C42.8844 16.515 41.2253 16.401 39.574 16.5154C38.2033 16.58 36.8473 16.8268 35.5419 17.2491C34.3588 17.6262 33.2223 18.1361 32.1539 18.7689C31.225 19.316 30.3822 19.9977 29.6529 20.7915C29.0457 21.4251 28.592 22.1897 28.3269 23.0261C28.0675 23.867 27.98 24.7514 28.0696 25.6268C28.2368 26.5505 28.7069 27.3925 29.4058 28.0198C30.5036 29.0344 31.7446 29.8823 33.0889 30.5364C35.3063 31.6625 37.5812 32.6723 39.904 33.5614C42.1863 34.4254 44.388 35.4887 46.4836 36.739C47.9773 37.621 49.3283 38.7243 50.4909 40.0111C51.3801 40.9999 51.9729 42.219 52.2009 43.5287C52.3861 44.8247 52.2868 46.1454 51.9102 47.3993C51.2766 49.5752 50.1614 51.5809 48.6472 53.2679C47.0527 55.0804 45.1987 56.6472 43.145 57.9173C41.0172 59.2364 38.7364 60.2916 36.3532 61.0601C34.0487 61.8266 31.6532 62.2874 29.2285 62.4301C27.4287 62.519 25.6253 62.4977 23.8281 62.3663C21.8446 62.2195 19.8727 61.9409 17.9262 61.5323C17.2806 61.4005 16.7053 61.3067 16.2003 61.2505C15.7254 61.1953 15.247 61.1788 14.7694 61.201C14.2666 61.2552 13.7797 61.4097 13.3376 61.6552C12.8955 61.9008 12.5072 62.2326 12.1957 62.6308L10.179 62.7368L14.8697 46.221L16.8865 46.115C16.7507 48.174 17.0235 50.2394 17.6892 52.1927C18.2482 53.804 19.1884 55.2565 20.4301 56.4266C21.6639 57.5486 23.1386 58.3734 24.7412 58.8371C26.5103 59.3559 28.3567 59.5619 30.1968 59.4458C31.5512 59.3788 32.8895 59.124 34.1737 58.6888C35.3869 58.2831 36.5452 57.7292 37.6226 57.0398C38.6076 56.4136 39.4884 55.6371 40.2326 54.7384C40.9095 53.9292 41.4124 52.9894 41.7099 51.9777C42.022 50.9845 42.1142 49.9354 41.9804 48.9031C41.7802 47.9015 41.2553 46.9936 40.4871 46.3197C39.3609 45.3146 38.1021 44.4683 36.7458 43.8049C35.1038 42.9467 32.9522 41.9735 30.2912 40.8858C28.0989 40.0611 25.978 39.0576 23.9503 37.8854C22.6206 37.1346 21.4429 36.1423 20.4781 34.9593C19.75 34.0383 19.3326 32.9106 19.2857 31.7379C19.2781 30.4039 19.4741 29.0767 19.8673 27.8018C20.4315 25.8599 21.3661 24.0454 22.6198 22.458C23.9535 20.747 25.5454 19.2534 27.3382 18.0308C29.2506 16.7232 31.3294 15.6771 33.5193 14.9201C35.8193 14.1157 38.2233 13.6459 40.6572 13.5252C41.6289 13.4935 42.6016 13.542 43.5652 13.6704C44.7304 13.808 45.9005 13.9621 47.0755 14.1326C48.2502 14.303 49.3191 14.4624 50.2815 14.6106C50.9382 14.7324 51.6042 14.7969 52.272 14.8037C52.842 14.7915 53.4008 14.642 53.9007 14.3679C54.5539 13.911 55.1362 13.3608 55.6295 12.7348L57.6434 12.6287L53.178 28.3875Z" fill="black"/>
<path d="M92.2539 10.243C94.6916 10.0737 97.1409 10.2804 99.5155 10.856C101.381 11.2991 103.147 12.0834 104.727 13.1692C105.976 14.0249 106.983 15.1885 107.649 16.5474C108.227 17.7342 108.346 19.0927 107.981 20.3613C107.6 21.6666 106.767 22.7945 105.633 23.5448C104.279 24.4363 102.7 24.9252 101.079 24.9542C100.235 25.0082 99.3889 24.9691 98.5544 24.8378C97.8848 24.7464 97.2542 24.4697 96.7339 24.0389C96.2383 23.5788 95.9141 22.9639 95.815 22.2952C95.6743 21.3162 95.7122 20.3199 95.9269 19.3544C96.1602 18.589 96.1783 17.7741 95.9791 16.9993C95.7798 16.2242 95.3709 15.5188 94.7971 14.9606C93.1735 13.8758 91.2023 13.4378 89.2718 13.733C86.9379 13.8419 84.6486 14.4102 82.5352 15.4054C80.4525 16.3933 78.5389 17.703 76.8643 19.2862C75.1529 20.9017 73.6838 22.7552 72.5022 24.7899C71.299 26.8426 70.3616 29.0396 69.712 31.3283C68.9698 33.8373 68.6441 36.4509 68.748 39.0653C68.8179 41.3334 69.401 43.5564 70.4534 45.5672C71.4549 47.4267 72.9768 48.9545 74.833 49.9638C77.0345 51.0851 79.5093 51.5587 81.9695 51.3297C83.672 51.2409 85.3609 50.9771 87.0093 50.5421C88.7535 50.0675 90.429 49.3691 91.9937 48.4644C93.8466 47.3821 95.5738 46.0981 97.1439 44.6359C99.1341 42.7805 100.966 40.7619 102.62 38.6017C99.5154 47.09 96.697 50.0527 91.2667 53.7821C88.825 55.4598 86.1746 56.8117 83.3828 57.804C80.7917 58.7334 78.0802 59.2864 75.3318 59.4458C72.443 59.6479 69.5449 59.223 66.8359 58.2006C64.4143 57.2831 62.287 55.7265 60.6809 53.6964C59.0361 51.5286 57.9889 48.9676 57.6434 46.269C57.2326 42.8826 57.5513 39.4473 58.5782 36.1942C59.6105 32.5585 61.2951 29.1405 63.5497 26.1064C65.8024 23.0475 68.4896 20.3333 71.5266 18.0497C74.5604 15.769 77.9007 13.9269 81.449 12.5778C84.9059 11.2382 88.5521 10.4504 92.2539 10.243Z" fill="black"/>
</mask>
<g mask="url(#mask0_6_34)">
<path fill-rule="evenodd" clip-rule="evenodd" d="M91.6453 0.0751728C95.0765 -0.153386 98.5227 0.139946 101.866 0.945569L101.866 0.945427C101.872 0.946844 101.878 0.948413 101.884 0.949833C101.893 0.952056 101.903 0.954137 101.912 0.956369L101.912 0.956653C104.975 1.69026 107.878 2.98042 110.476 4.76395L110.477 4.7638C112.141 5.90378 113.606 7.29765 114.823 8.88814C115.161 9.24373 115.519 9.626 115.886 10.022C117.224 11.4655 118.856 13.2826 120.446 15.0899C122.037 16.8965 123.634 18.7486 124.898 20.2633C125.524 21.0138 126.114 21.735 126.594 22.3513C126.764 22.5691 127.712 23.7443 128.357 25.0114L128.419 25.1344L128.432 25.1609C130.113 28.6118 130.456 32.5636 129.396 36.2537C129.391 36.268 129.387 36.2825 129.383 36.2969C128.325 39.9177 126.018 43.0431 122.876 45.1203C122.871 45.1235 122.866 45.1267 122.861 45.1299C122.684 45.2466 122.505 45.3601 122.324 45.4707C124.392 48.1664 125.042 51.8135 123.811 55.1793C122.062 59.9609 120.139 63.9056 117.468 67.3262C114.764 70.7876 111.726 73.1514 108.659 75.2574L108.659 75.2573C105.496 77.43 102.064 79.182 98.4497 80.4692L98.4498 80.4694C98.4437 80.4715 98.4376 80.4736 98.4315 80.4758C98.4283 80.4769 98.4251 80.4782 98.4218 80.4794L98.4216 80.4793C94.9493 81.7217 91.3183 82.4647 87.6372 82.6863C83.2984 82.9843 78.9458 82.344 74.8764 80.8081C74.8723 80.8067 74.8681 80.8051 74.8642 80.8035C72.7782 80.0132 71.0761 78.579 70.6176 78.2043C69.7376 77.4848 68.7885 76.6283 67.866 75.7622C67.4478 75.3696 67.0141 74.9549 66.5696 74.524C64.6359 76.484 62.4742 78.2083 60.1289 79.6588L60.1288 79.6587C57.3283 81.3935 54.3292 82.7847 51.1966 83.8026C48.0466 84.8504 44.7728 85.4802 41.4589 85.6755C41.4268 85.6774 41.3945 85.6791 41.3624 85.6807C39.1482 85.79 36.9295 85.7637 34.7184 85.602C34.7157 85.6017 34.7128 85.6016 34.7099 85.6014C32.6128 85.4462 30.5267 85.1706 28.4617 84.7766C27.202 85.4211 25.8076 85.8034 24.3623 85.8795L22.3457 85.9854C19.2255 86.1496 16.2026 84.8706 14.1465 82.5162L3.82031 70.691C3.23514 70.2226 2.69773 69.6862 2.22076 69.0877C0.172159 66.517 -0.510378 63.1148 0.387899 59.952L5.07864 43.4363C5.86043 40.6837 7.73437 38.458 10.1606 37.1901C9.54137 35.5876 9.18444 33.8843 9.11486 32.1455C9.11021 32.0293 9.10758 31.9127 9.10691 31.7963C9.09347 29.4465 9.43583 27.1085 10.1218 24.8614C11.0529 21.7026 12.5782 18.7508 14.616 16.1647C16.5916 13.6364 18.946 11.4291 21.5956 9.62055C24.2466 7.80788 27.1272 6.35652 30.1612 5.30437C30.1648 5.30309 30.1686 5.30167 30.1722 5.30039C30.1801 5.29764 30.1881 5.29476 30.1961 5.29201V5.29229C33.4056 4.17355 36.7587 3.51987 40.1534 3.35156C40.2107 3.34872 40.268 3.34632 40.3253 3.34445C41.8188 3.29569 43.314 3.36785 44.7959 3.55918C46.0391 3.70627 47.2858 3.87044 48.5361 4.05185C49.0338 4.12407 49.5144 4.19472 49.9776 4.26345C51.4836 3.25728 53.2475 2.66002 55.0944 2.56273L57.1084 2.45672C59.4289 2.33451 61.6901 3.01057 63.5402 4.32612C64.3651 4.84595 65.1197 5.48702 65.7756 6.23701L67.6156 8.34075C70.8073 6.19811 74.2349 4.42412 77.8335 3.05584C82.2544 1.34988 86.9145 0.344332 91.6453 0.0751728Z" fill="black"/>
</g>
</g>
<defs>
<clipPath id="clip0_6_34">
<rect width="130" height="86" fill="white"/>
</clipPath>
</defs>
</svg>
