<svg width="148" height="41" viewBox="0 0 148 41" fill="none" xmlns="http://www.w3.org/2000/svg">
<path fill-rule="evenodd" clip-rule="evenodd" d="M96.9265 5.14544e-05C97.7751 -0.002451 98.5929 0.351072 99.1748 0.985219L102.434 4.53781C103.104 5.26812 103.375 6.27579 103.171 7.23819C103.963 7.37511 104.51 7.76689 104.691 7.89899C105.063 8.17111 105.361 8.48302 105.56 8.70651C105.664 8.82256 105.767 8.94519 105.868 9.07075C106.33 8.67227 106.83 8.31875 107.361 8.01563L107.529 7.92113C108.369 7.45608 109.26 7.08847 110.184 6.82571C111.266 6.51507 112.381 6.33062 113.505 6.27516C114.906 6.16122 116.316 6.29615 117.67 6.6743C118.525 6.90428 119.307 7.3532 119.937 7.97689L125.274 5.81854C126.17 5.456 127.173 5.54594 127.982 6.03465C128.798 5.66378 129.647 5.42784 130.526 5.37612C130.988 5.34439 131.452 5.37007 131.907 5.45232C132.765 4.87632 133.458 4.39472 133.9 3.95009L133.905 3.94484C134.224 3.62496 134.659 3.18422 135.048 2.78287C135.214 2.61231 135.366 2.45289 135.496 2.31561C135.52 2.27603 135.542 2.24028 135.562 2.20905C135.636 2.09413 135.714 1.98546 135.784 1.8905C136.337 1.14074 137.201 0.685623 138.131 0.655175C139.061 0.624743 139.953 1.0223 140.554 1.73428L143.748 5.52043C144.306 6.18203 144.538 7.01993 144.449 7.82776L146.258 9.75326C146.992 10.5346 147.263 11.6453 146.971 12.678L146.671 13.7385C146.316 14.9943 145.203 15.8846 143.903 15.9532L142.167 16.0447L141.455 18.5576L143.615 20.8397C144.613 21.8945 144.73 23.5087 143.895 24.6972C143.436 25.3496 142.913 25.954 142.334 26.5015L142.334 26.5017C141.793 27.0151 141.201 27.472 140.567 27.8651C140.566 27.8655 140.566 27.866 140.565 27.8664C139.952 28.2463 139.296 28.5538 138.613 28.7832L138.613 28.7833C138.61 28.7843 138.607 28.7852 138.604 28.7862C138.602 28.7867 138.601 28.7874 138.599 28.788L138.599 28.7879C137.929 29.0134 137.234 29.1499 136.529 29.1934C136.522 29.1938 136.515 29.1942 136.508 29.1945C135.999 29.2225 135.488 29.19 134.986 29.0979C134.985 29.0977 134.983 29.0975 134.982 29.0973C134.975 29.0961 134.968 29.0949 134.962 29.0937V29.0934C134.418 28.9937 133.893 28.8141 133.402 28.56C133.399 28.5586 133.396 28.5571 133.394 28.5557C132.871 28.2833 132.4 27.9214 132.002 27.4866C131.999 27.4834 131.996 27.4801 131.993 27.4769C132.003 27.4874 131.866 27.347 131.546 27.0193L131.505 27.166C131.149 28.4218 130.037 29.3117 128.737 29.3801L120.612 29.8075C120.602 29.8082 120.591 29.8086 120.58 29.8092L120.568 29.8099L120.567 29.8098C120.554 29.8104 120.541 29.8113 120.528 29.8118C120.378 29.8177 120.231 29.8124 120.086 29.7972C119.228 30.0578 118.417 30.1848 117.675 30.2318C117.016 30.3049 116.348 30.2316 115.719 30.0154C115.294 29.8693 114.895 29.6607 114.534 29.398C114.228 29.5542 113.921 29.707 113.611 29.8556C113.552 29.8841 113.492 29.9107 113.431 29.9352C112.434 30.3365 111.38 30.5728 110.308 30.6363L110.309 30.6365C110.303 30.6368 110.298 30.6369 110.293 30.6373C110.279 30.6381 110.264 30.6394 110.25 30.6401L110.25 30.64C109.383 30.6959 108.513 30.5933 107.682 30.3365V30.3368C107.667 30.3321 107.652 30.3271 107.636 30.3223C107.327 30.4493 106.993 30.5264 106.645 30.5448L98.4246 30.9807C98.1775 30.9938 97.9324 30.9763 97.6941 30.9307C97.4602 31.0025 97.2153 31.0469 96.9632 31.0602L88.6693 31.4961C87.9406 31.5343 87.2292 31.3085 86.6594 30.8707C86.1125 31.158 85.5457 31.407 84.963 31.6152L84.9631 31.6154C84.9621 31.6158 84.961 31.6161 84.9599 31.6165C84.9582 31.6171 84.9565 31.6178 84.9548 31.6184L84.9546 31.6182C83.9197 31.9899 82.8376 32.2124 81.7404 32.2797L81.7405 32.2799C81.7386 32.28 81.7367 32.28 81.7347 32.2802C81.7246 32.2808 81.7145 32.2817 81.7044 32.2823L81.7043 32.2821C80.4149 32.3674 79.1221 32.1749 77.9129 31.717C77.9117 31.7165 77.9105 31.716 77.9093 31.7156C77.3396 31.499 76.8706 31.1293 76.7183 31.0111C76.4628 30.8128 76.1909 30.5793 75.9292 30.3453C75.4004 29.8724 74.7903 29.2864 74.2124 28.7139C73.4989 28.0072 72.7263 27.2136 72.1706 26.6146C71.9224 26.3776 71.69 26.1226 71.4759 25.8511C71.4632 25.8349 71.4506 25.8185 71.4381 25.802C70.6252 24.7266 70.1074 23.4563 69.9367 22.1177C69.9358 22.1111 69.9349 22.1044 69.9341 22.0977C69.9004 21.8185 69.8783 21.5386 69.8676 21.2586L59.8572 34.511C59.2461 35.3238 58.5588 36.076 57.8048 36.7575C57.1154 37.3832 56.3712 37.9452 55.581 38.4365L55.5808 38.4364C54.844 38.8946 54.0614 39.2743 53.2455 39.5687L53.2454 39.5684C52.4711 39.8528 51.6609 40.0271 50.8383 40.086L50.8385 40.0863C50.8354 40.0865 50.8322 40.0866 50.8291 40.0869C50.8286 40.0869 50.8281 40.087 50.8276 40.087L50.8274 40.0869C50.167 40.1345 49.5033 40.0706 48.864 39.8973L48.8626 39.8969C48.2246 39.7236 47.6281 39.4229 47.1088 39.0129C47.1069 39.0114 47.1049 39.0099 47.1029 39.0083C46.9826 38.9133 46.6112 38.6131 46.248 38.3C46.0663 38.1434 45.8514 37.9534 45.6624 37.7699C45.5712 37.6814 45.4472 37.5572 45.3249 37.4159C45.3174 37.4073 45.1681 37.2471 45.0008 36.9819C44.9852 36.9639 44.9677 36.9434 44.9479 36.9206C44.785 36.7345 44.5988 36.5301 44.3484 36.2493C44.1289 36.0032 43.8594 35.6975 43.6418 35.4237C43.5613 35.3223 43.4485 35.1763 43.3364 35.0088C43.0112 34.6551 42.7489 34.2468 42.5619 33.8015C42.2901 33.8984 42.0016 33.9578 41.703 33.9735L33.5005 34.4064C33.1135 34.4269 32.7321 34.3724 32.3744 34.2523C31.6074 34.5813 30.8181 34.7982 30.0128 34.8575C29.3498 34.9327 28.6778 34.8597 28.0453 34.6423C27.621 34.4964 27.2225 34.2882 26.8618 34.026C26.5554 34.1826 26.2472 34.3358 25.937 34.4848C25.8778 34.5132 25.8176 34.5397 25.7567 34.5642C24.7604 34.9655 23.706 35.2019 22.6344 35.2655L22.6346 35.2656C22.6293 35.266 22.624 35.2661 22.6187 35.2664C22.6045 35.2673 22.5903 35.2685 22.5761 35.2693L22.576 35.2691C21.7091 35.3251 20.8394 35.2225 20.009 34.9659V34.9662C20.0056 34.9651 20.0021 34.964 19.9987 34.9629C19.9979 34.9627 19.9971 34.9625 19.9963 34.9622C19.3026 34.7479 18.661 34.3973 18.1075 33.9334C18.0021 34.0043 17.8953 34.0733 17.7872 34.1404C16.9492 34.6616 16.0516 35.0796 15.1138 35.3854C15.105 35.3883 15.0961 35.3914 15.0872 35.3943L15.0871 35.3942C14.1533 35.7033 13.1834 35.8894 12.2017 35.9474C12.1921 35.948 12.1825 35.9486 12.1728 35.9491C11.5107 35.9819 10.8472 35.9739 10.1861 35.9254C10.1853 35.9253 10.1844 35.9253 10.1836 35.9253C9.55689 35.8787 8.93346 35.796 8.31639 35.6779C7.9688 35.8562 7.58674 35.9679 7.18949 36.0019C6.34645 36.074 5.51146 35.7909 4.88504 35.2206L1.21949 31.8836C1.01454 31.7298 0.827459 31.5491 0.664178 31.3439C0.236672 30.8067 0.00817462 30.1481 0.000183937 29.4772C-7.41721e-05 29.463 0.000101648 29.4487 4.24212e-05 29.4345C6.16038e-05 29.4252 -6.19791e-05 29.4158 4.24212e-05 29.4065C0.00156945 29.1007 0.0486833 28.7922 0.144814 28.4913L0.176089 28.3933L1.51766 23.6533L1.53493 23.5947C1.7782 22.7959 2.32987 22.1508 3.03924 21.78C2.85294 21.2982 2.7455 20.7859 2.72465 20.2632C2.72327 20.2284 2.72245 20.1935 2.72225 20.1587C2.7183 19.4649 2.81775 18.7744 3.01674 18.1099C3.29476 17.1496 3.75534 16.252 4.37318 15.467C4.96317 14.7108 5.66605 14.0502 6.457 13.5089C7.25176 12.964 8.1156 12.5279 9.02552 12.2123C9.98535 11.8765 10.9882 11.6805 12.0036 11.6299L12.055 11.6278C12.4978 11.6133 12.9412 11.6345 13.3807 11.6908C13.7561 11.7353 14.1328 11.7851 14.5104 11.8401C14.6586 11.8617 14.8017 11.8828 14.9396 11.9034C15.39 11.6016 15.9176 11.4225 16.4701 11.3933L17.0721 11.3615C18.0526 11.3097 18.9979 11.7354 19.6105 12.5047C19.6436 12.5463 19.6753 12.5887 19.706 12.6317C20.5908 12.1262 21.5333 11.7298 22.5132 11.4514C23.5942 11.1416 24.707 10.9574 25.8299 10.902C27.2274 10.7884 28.634 10.9227 29.9852 11.2989C30.838 11.5264 31.6174 11.971 32.2478 12.5894L32.3092 12.6509L32.3696 12.7132C32.5121 12.8628 32.6448 13.0206 32.7676 13.1854C32.7719 13.1897 32.7763 13.1939 32.7806 13.1982C32.9459 13.3612 33.1242 13.543 33.3069 13.7327L34.0371 11.1528C33.4496 10.8238 32.9667 10.2986 32.6972 9.62399C32.3164 8.67049 32.4493 7.63766 32.9654 6.83464C33.3185 6.17748 33.9044 5.66474 34.6207 5.40819L37.5596 4.35562L40.4987 3.14867C41.5764 2.70613 42.8115 2.91919 43.6799 3.69723C43.8574 3.85632 44.0129 4.03368 44.1458 4.22423L46.2719 6.49311C47.1808 5.6001 48.5709 5.35771 49.7436 5.93589C49.8695 5.99797 49.9894 6.06796 50.103 6.14476C50.3234 6.28561 50.5272 6.45544 50.7077 6.65231L53.6266 9.83513L57.4661 9.63279C58.4469 9.58106 59.3924 10.0071 60.0049 10.7769C60.0194 10.7951 60.0334 10.8136 60.0474 10.8321C60.5602 9.98103 61.4681 9.41696 62.4923 9.36291L67.9363 9.07571C68.9171 9.02396 69.8626 9.45002 70.4751 10.2198C70.4983 10.249 70.5207 10.2787 70.5428 10.3086L73.006 12.9498C73.6851 12.1647 74.4459 11.4529 75.2758 10.8267L75.2761 10.8265C76.4063 9.97391 77.6503 9.28452 78.9715 8.77845L79.0964 8.73049C80.3485 8.25773 81.6632 7.97262 82.9982 7.88437L83.1316 7.87629C84.154 7.80915 85.1806 7.89738 86.1766 8.13822L86.1768 8.13808C87.0981 8.3577 87.9709 8.74633 88.7514 9.28401C88.8212 9.33201 88.89 9.38163 88.9574 9.43258L89.2833 8.28125C88.6469 7.94805 88.1252 7.38933 87.8495 6.66522C87.2587 5.11347 88.0144 3.3729 89.5497 2.7491L95.7665 0.223108C96.1417 0.0706453 96.5358 -0.00221929 96.9265 5.14544e-05Z" fill="black"/>
<path fill-rule="evenodd" clip-rule="evenodd" d="M16.6303 14.4404C16.4829 14.6282 16.3088 14.7933 16.1135 14.9303C15.7812 15.1132 15.3903 15.0699 15.0316 15.0031C14.3636 14.8999 13.6949 14.8006 13.0237 14.7211C10.7387 14.4155 8.16664 15.5493 6.7621 17.3573C6.14721 18.1386 5.75965 19.1398 5.76536 20.1413C5.8264 21.6721 7.88301 22.4431 9.0555 22.8857C10.1054 23.3164 12.283 23.9509 12.5499 25.2909C12.6303 25.9131 12.4273 26.5618 12.0274 27.0414C11.3091 27.9121 10.1373 28.3986 9.02725 28.4537C7.9898 28.5194 6.89036 28.2625 6.10745 27.5479C5.27689 26.7625 4.97475 25.5705 5.04813 24.4545L4.44522 24.4863L3.04292 29.441L3.64583 29.4092C4.07403 28.8598 4.7565 28.9563 5.35893 29.0796C6.46804 29.3133 7.6058 29.4051 8.73774 29.349C10.8972 29.2214 13.1061 28.2396 14.543 26.6003C15.233 25.8289 15.7561 24.7371 15.6053 23.6786C15.203 21.3606 11.6154 20.6593 9.89184 19.7809C9.29278 19.4884 8.52051 19.0244 8.39129 18.308C8.36452 18.0454 8.39068 17.78 8.46823 17.5278C8.75655 16.615 9.77657 16.0661 10.6251 15.7947C11.7702 15.4229 13.4321 15.3563 14.3708 16.2319C15.1199 16.9816 15.2916 18.1509 15.295 19.168L15.8975 19.1362L17.2324 14.4086L16.6303 14.4404ZM25.1615 27.8265C26.7464 29.4988 29.9101 26.7402 30.9932 25.7874L31.2336 24.9387C30.708 25.3138 29.2311 26.7369 28.4586 26.1309C28.1461 25.7482 28.3976 25.1387 28.496 24.7278C29.0044 22.6038 29.6624 20.5115 30.2569 18.4109C30.6336 17.0776 30.7756 16.1945 30.6829 15.7616C29.6957 11.7168 21.5439 14.5095 19.6923 16.4755C19.1006 17.0835 18.2476 18.6702 19.5069 19.0955C20.0811 19.2895 20.8119 19.0522 21.2745 18.7055C21.6359 18.4331 21.8946 18.0459 22.0083 17.6071L22.2204 16.7301C22.4808 15.8866 23.337 15.3565 24.1308 15.0994C25.0535 14.8106 26.6384 14.6271 27.298 15.544C27.9195 16.5516 27.4435 17.8598 27.1484 18.9026C24.8333 19.6128 22.5623 20.4604 20.3473 21.4407C18.9697 22.0893 17.5239 22.9023 16.6595 24.2025C16.1752 24.9435 15.9141 25.866 16.0466 26.7498C16.1107 27.1529 16.2882 27.5293 16.5582 27.8348C16.8459 28.1441 17.2097 28.372 17.6132 28.4956C18.8198 28.8709 20.1876 28.6435 21.3376 28.1804C22.6332 27.5582 23.8931 26.8639 25.1115 26.1008C24.8765 26.9269 24.8931 27.5022 25.1615 27.8265ZM21.3071 26.8209C20.7135 26.8615 20.0795 26.6691 19.6931 26.1971C19.3006 25.7011 19.2453 25.0193 19.4293 24.4274C20.3099 21.6199 24.4458 20.6744 26.8872 19.8249L25.3906 25.1131C24.2418 25.81 22.7145 26.8209 21.3071 26.8209ZM41.6522 5.9724L35.5222 8.48965C36.0622 8.27772 36.9178 7.96862 37.4535 8.34407C37.8467 8.79894 37.6327 9.52666 37.4896 10.0362C36.2896 14.9085 34.7772 19.7153 33.411 24.5425C33.2116 25.2779 32.9925 26.1268 32.4081 26.6561C31.813 27.1589 30.9594 27.2383 30.2112 27.2637L30.0556 27.8069L38.2581 27.374L38.4125 26.8287C37.846 26.9054 36.2606 27.0164 36.166 26.1209C36.1012 25.5409 36.2792 24.932 36.442 24.3821L41.6522 5.9724ZM48.4007 8.67403C48.0106 9.20204 46.3759 10.7558 46.0768 11.115C46.2655 10.9159 45.7778 11.4742 46.0768 11.115C45.3423 11.855 44.5518 12.6546 43.6861 13.2347C42.9485 13.7439 41.9856 14.282 41.1462 14.5947L43.7952 14.4548L41.1536 23.7884C40.8639 24.5854 40.5744 25.8968 41.2201 26.606C41.7468 27.1812 42.5642 27.3723 43.3183 27.3309C44.2487 27.2735 45.1524 26.9423 45.9421 26.4534C46.9044 25.8561 47.7322 25.0492 48.3833 24.1227L47.6704 24.1602C47.3664 24.5606 46.9785 24.8893 46.5341 25.1231C45.9845 25.425 44.649 25.8513 44.2186 25.1035C43.9379 24.5588 44.0886 23.8497 44.2625 23.2954L46.8097 14.2952L50.7189 14.0891L51.0192 13.0285L47.1097 13.2347L48.4007 8.67403ZM51.0192 13.0285C51.0192 13.0285 50.8086 13.7723 50.7189 14.0891C50.8402 14.1726 51.0192 14.2336 51.2053 14.3175C51.5104 14.6021 51.4314 14.6482 51.53 14.8227C53.39 18.1063 53.9612 22.3636 55.0379 25.9509L53.1688 28.4228C52.4551 29.3814 51.0535 31.1905 49.6239 30.7739C49.1486 30.6589 48.6675 30.5682 48.1872 30.4767C47.4847 30.3213 46.7322 30.488 46.1307 30.8759C45.4159 31.3271 44.9141 32.4388 45.7043 33.0615C48.3177 35.1314 52.7628 30.9586 54.1464 29.1163L64.8801 14.9063C65.47 14.1309 66.1188 13.1094 67.12 12.8385C67.3897 12.7725 67.6626 12.7207 67.9376 12.6833L68.0963 12.1228L62.6523 12.41L62.4936 12.9706C62.8244 12.9476 63.9002 12.8076 63.9894 13.3376C64.0357 13.8804 63.6112 14.4982 63.2961 14.8963L57.3804 22.768L55.2874 15.9826C55.0944 15.4708 55.0461 14.9156 55.1479 14.3781C55.2527 14.0571 55.4735 13.7872 55.7669 13.6214C56.3008 13.3125 56.87 13.2723 57.4674 13.2404L57.626 12.6798L51.0192 13.0285ZM86.4009 19.4304C85.5219 20.5826 84.4806 21.6527 83.2242 22.3892C81.7532 23.2427 79.6598 23.6393 78.0941 22.8391C77.5392 22.5362 77.0842 22.0779 76.7848 21.5201C76.4701 20.9168 76.2958 20.2499 76.2749 19.5695C76.2157 18.0734 76.6456 16.5738 77.3973 15.2869C78.0955 14.0802 79.136 13.0716 80.3966 12.4715C81.4658 11.9663 83.0092 11.6319 84.0623 12.3381C84.8749 13.1314 83.8568 14.3308 84.6413 15.0615C85.3213 15.6267 86.6536 15.3416 87.3016 14.9133C87.6409 14.6882 87.8896 14.3499 88.0036 13.9583C88.1126 13.5777 88.0773 13.1701 87.9045 12.8141C87.448 11.8805 86.4479 11.3392 85.4729 11.1067C83.6961 10.6745 81.7567 10.9681 80.0719 11.6232C79.0112 12.028 78.0126 12.5806 77.1056 13.2648C76.1977 13.9499 75.3943 14.7641 74.7209 15.6818C74.0469 16.592 73.5433 17.6174 73.2347 18.7082C72.9277 19.6841 72.8324 20.7147 72.9552 21.7306C73.0585 22.5402 73.3716 23.3084 73.8633 23.9589C74.3435 24.5679 74.9794 25.0349 75.7033 25.3101C76.5132 25.6168 77.3796 25.7443 78.2432 25.6837C79.9503 25.5843 81.6032 24.9524 83.0069 23.9846C84.6303 22.8657 85.6085 21.6848 86.4009 19.4304ZM96.9095 3.05109L90.6926 5.57705C91.2686 5.36995 92.134 5.05358 92.7056 5.42624C92.8804 5.61994 92.9559 5.89068 92.9069 6.14719C92.761 7.13668 92.533 8.11224 92.2253 9.06371L88.67 21.6247C88.4602 22.4271 88.1493 23.3336 87.4637 23.8525C86.8669 24.2727 86.0856 24.3199 85.3794 24.3511L85.2251 24.8964L93.5189 24.4606L93.6732 23.9153C93.3133 23.9377 92.9523 23.9393 92.5922 23.9201C92.2212 23.9127 91.4112 23.753 91.3659 23.2606C91.3074 22.6625 91.5413 22.0314 91.7011 21.4664L93.7806 14.1309C95.3168 12.9669 97.9867 11.0865 100.02 12.1977C101.096 12.9316 100.402 14.6342 100.127 15.6025L98.5704 21.1025C98.3689 21.8152 98.1834 22.6334 97.6423 23.1738C97.412 23.3882 97.1334 23.5437 96.8304 23.6271C96.2718 23.7732 95.7062 23.806 95.1333 23.8359L94.979 24.3812L103.2 23.9453L103.354 23.4C102.748 23.4245 101.717 23.4871 101.335 22.8722C101.09 22.2824 101.441 21.5106 101.602 20.9399L103.159 15.4399C103.511 14.2147 103.815 12.8356 103.441 11.5818C103.281 11.0764 102.94 10.648 102.485 10.3784C100.739 9.48979 98.5488 10.2252 96.9742 11.1542C95.9433 11.7617 95.0164 12.5193 94.0366 13.2029L96.9095 3.05109ZM112.835 23.1995C114.254 24.697 117.513 22.7537 118.645 21.9028L118.907 20.3118C118.38 20.6878 116.906 22.109 116.132 21.5039C115.819 21.1208 116.072 20.5117 116.172 20.1008C116.688 17.9781 117.338 15.8852 117.932 13.7839C118.309 12.4507 118.451 11.5676 118.358 11.1346C117.371 7.09021 109.219 9.88214 107.368 11.8482C106.776 12.4561 105.923 14.0428 107.182 14.4682C107.756 14.6621 108.487 14.4249 108.95 14.0782C109.311 13.8055 109.57 13.4184 109.684 12.9797L109.896 12.1027C110.155 11.259 111.013 10.729 111.806 10.4721C112.729 10.1831 114.314 9.99986 114.974 10.9167C115.595 11.9239 115.12 13.233 114.822 14.2747C112.507 14.985 110.236 15.8326 108.021 16.8129C106.643 17.4611 105.198 18.2744 104.333 19.5743C103.849 20.3145 103.588 21.2377 103.721 22.1207C103.785 22.5238 103.962 22.9001 104.232 23.2056C104.52 23.5149 104.884 23.7428 105.287 23.8664C106.494 24.2418 107.862 24.0144 109.012 23.5513C110.307 22.9291 111.567 22.2348 112.786 21.4717C112.629 22.026 112.475 22.6522 112.835 23.1995ZM108.981 22.1939C108.387 22.2345 107.753 22.0421 107.367 21.5702C106.974 21.0742 106.919 20.3924 107.103 19.8005C107.983 16.9935 112.119 16.0472 114.56 15.198L113.064 20.4861C111.915 21.1829 110.388 22.1939 108.981 22.1939ZM126.412 8.64831L120.134 11.1878C120.566 11.0295 121.018 10.9303 121.477 10.8931C122.134 10.8586 122.458 11.1346 122.448 11.7213C122.297 12.6958 122.068 13.6564 121.761 14.5934L120.24 19.9722C120.116 20.4348 119.953 20.8855 119.75 21.3191C119.459 21.945 118.813 22.4697 118.21 22.7806C117.984 22.8969 117.574 23.1926 117.123 23.2104L125.292 22.7806L125.447 22.2354C124.727 22.3014 123.679 22.3012 123.214 21.6369C122.887 21.055 123.111 20.2891 123.287 19.6924L125.17 13.0407C125.726 12.3932 127.585 9.97801 128.673 10.7066C129.225 11.0219 129.902 11.4961 130.562 11.4733C131.015 11.4446 131.449 11.2813 131.81 11.0043C132.486 10.5453 132.986 9.46484 132.233 8.8401C130.093 7.06231 126.781 10.4216 125.529 11.7697L126.412 8.64831ZM138.139 3.93855C138.439 3.57938 137.75 4.46656 138.139 3.93855C135.877 6.65335 132.828 8.89856 129.512 10.1338L133.534 9.71929L130.892 19.0529C130.602 19.8503 130.314 21.1604 130.959 21.8705C131.486 22.4457 132.303 22.6368 133.057 22.5954C133.987 22.538 134.891 22.207 135.681 21.718C136.643 21.1209 137.471 20.3136 138.122 19.3873L137.41 19.4248C137.105 19.8249 136.718 20.1536 136.273 20.3876C135.724 20.6894 134.388 21.1159 133.957 20.368C133.677 19.8226 133.828 19.1148 134.001 18.56L136.548 9.55975L140.458 9.35358L140.758 8.29307L136.848 8.49924L138.139 3.93855Z" fill="white"/>
</svg>
