<svg width="3176" height="864" viewBox="0 0 3176 864" fill="none" xmlns="http://www.w3.org/2000/svg">
<path fill-rule="evenodd" clip-rule="evenodd" d="M2092.51 0.00110778C2110.83 -0.0527685 2128.49 7.55838 2141.05 21.2112L2211.41 97.6964C2225.88 113.42 2231.73 135.114 2227.32 155.834C2244.41 158.782 2256.24 167.217 2260.14 170.061C2268.17 175.919 2274.61 182.634 2278.9 187.446C2281.14 189.945 2283.36 192.585 2285.55 195.288C2295.53 186.709 2306.32 179.098 2317.79 172.572L2321.41 170.537C2339.55 160.525 2358.78 152.611 2378.72 146.953C2402.09 140.266 2426.15 136.294 2450.42 135.1C2480.66 132.647 2511.1 135.552 2540.33 143.694C2558.8 148.645 2575.67 158.31 2589.29 171.738L2704.5 125.27C2723.85 117.464 2745.49 119.401 2762.96 129.922C2780.58 121.938 2798.91 116.858 2817.87 115.745C2827.86 115.062 2837.88 115.614 2847.7 117.385C2866.21 104.984 2881.19 94.6157 2890.71 85.0431L2890.83 84.93C2897.71 78.0432 2907.11 68.5544 2915.51 59.9136C2919.08 56.2415 2922.38 52.8092 2925.18 49.8538C2925.69 49.0015 2926.18 48.2318 2926.61 47.5596C2928.2 45.0854 2929.87 42.7458 2931.39 40.7014C2943.32 24.5595 2961.99 14.7611 2982.06 14.1055C3002.13 13.4503 3021.4 22.0094 3034.36 37.3379L3103.32 118.852C3115.37 133.095 3120.38 151.135 3118.46 168.527L3157.51 209.982C3173.36 226.803 3179.2 250.715 3172.9 272.949L3166.42 295.781C3158.76 322.819 3134.74 341.986 3106.67 343.462L3069.19 345.432L3053.83 399.535L3100.45 448.666C3121.99 471.375 3124.52 506.129 3106.49 531.716C3096.59 545.762 3085.31 558.774 3072.8 570.562L3072.81 570.565C3061.12 581.62 3048.33 591.456 3034.65 599.92C3034.64 599.928 3034.62 599.939 3034.61 599.947C3021.37 608.127 3007.22 614.747 2992.46 619.685L2992.46 619.688C2992.4 619.709 2992.34 619.728 2992.27 619.749C2992.24 619.762 2992.2 619.776 2992.16 619.789L2992.16 619.786C2977.71 624.642 2962.69 627.581 2947.47 628.517C2947.33 628.526 2947.18 628.533 2947.03 628.541C2936.03 629.144 2925 628.443 2914.16 626.461C2914.14 626.456 2914.11 626.453 2914.09 626.449C2913.94 626.421 2913.79 626.397 2913.64 626.369V626.363C2901.91 624.216 2890.56 620.351 2879.96 614.88C2879.91 614.849 2879.85 614.818 2879.79 614.788C2868.51 608.922 2858.34 601.131 2849.75 591.769C2849.69 591.701 2849.62 591.631 2849.56 591.562C2849.77 591.788 2846.81 588.765 2839.91 581.71L2839.01 584.868C2831.34 611.904 2807.32 631.064 2779.25 632.537L2603.86 641.738C2603.63 641.752 2603.39 641.763 2603.15 641.775L2602.89 641.79L2602.89 641.787C2602.61 641.801 2602.32 641.819 2602.04 641.83C2598.81 641.957 2595.62 641.844 2592.5 641.515C2573.97 647.126 2556.47 649.861 2540.45 650.872C2526.22 652.447 2511.79 650.869 2498.21 646.214C2489.04 643.069 2480.42 638.578 2472.63 632.922C2466.03 636.285 2459.39 639.574 2452.71 642.774C2451.43 643.386 2450.13 643.959 2448.82 644.488C2427.31 653.126 2404.54 658.214 2381.41 659.582L2381.41 659.585C2381.3 659.593 2381.19 659.595 2381.07 659.603C2380.76 659.621 2380.46 659.648 2380.15 659.664L2380.15 659.661C2361.43 660.866 2342.64 658.656 2324.71 653.127V653.133C2324.38 653.032 2324.05 652.925 2323.72 652.821C2317.04 655.555 2309.83 657.215 2302.33 657.611L2124.85 666.996C2119.52 667.278 2114.23 666.902 2109.08 665.921C2104.04 667.465 2098.75 668.422 2093.3 668.707L1914.25 678.091C1898.52 678.916 1883.16 674.054 1870.86 664.629C1859.05 670.813 1846.82 676.174 1834.24 680.658L1834.24 680.661C1834.22 680.669 1834.19 680.677 1834.17 680.685C1834.13 680.698 1834.1 680.712 1834.06 680.725L1834.06 680.722C1811.71 688.723 1788.35 693.515 1764.66 694.964L1764.67 694.967C1764.63 694.97 1764.58 694.97 1764.54 694.973C1764.33 694.986 1764.11 695.006 1763.89 695.019L1763.89 695.016C1736.05 696.851 1708.14 692.707 1682.04 682.848C1682.01 682.838 1681.98 682.827 1681.96 682.817C1669.66 678.154 1659.53 670.196 1656.24 667.65C1650.73 663.38 1644.86 658.355 1639.21 653.316C1627.79 643.135 1614.62 630.518 1602.15 618.194C1586.74 602.979 1570.06 585.893 1558.07 572.997C1552.71 567.894 1547.69 562.405 1543.07 556.559C1542.79 556.21 1542.52 555.856 1542.25 555.502C1524.7 532.349 1513.52 505 1509.84 476.182C1509.82 476.039 1509.8 475.894 1509.78 475.751C1509.05 469.74 1508.58 463.713 1508.35 457.684L1292.24 743.002C1279.04 760.5 1264.2 776.695 1247.93 791.367C1233.05 804.837 1216.98 816.938 1199.92 827.515L1199.92 827.512C1184.01 837.378 1167.11 845.552 1149.5 851.89L1149.5 851.884C1132.78 858.008 1115.29 861.76 1097.53 863.028L1097.53 863.034C1097.47 863.039 1097.4 863.042 1097.33 863.047C1097.32 863.047 1097.31 863.049 1097.3 863.05L1097.3 863.047C1083.04 864.072 1068.71 862.696 1054.91 858.965L1054.88 858.956C1041.1 855.225 1028.23 848.751 1017.02 839.924C1016.98 839.892 1016.93 839.861 1016.89 839.826C1014.29 837.781 1006.27 831.317 998.432 824.576C994.51 821.205 989.871 817.113 985.789 813.163C983.821 811.258 981.145 808.584 978.503 805.541C978.342 805.357 975.119 801.908 971.507 796.199C971.171 795.811 970.793 795.369 970.364 794.88C966.848 790.872 962.827 786.471 957.422 780.427C952.683 775.128 946.865 768.547 942.168 762.651C940.43 760.469 937.995 757.325 935.575 753.718C928.554 746.104 922.891 737.313 918.854 727.727C912.986 729.813 906.757 731.091 900.312 731.43L723.23 740.75C714.875 741.19 706.642 740.019 698.92 737.433C682.362 744.514 665.322 749.186 647.936 750.462C633.623 752.08 619.114 750.509 605.46 745.827C596.301 742.687 587.696 738.205 579.91 732.56C573.296 735.932 566.642 739.229 559.945 742.437C558.666 743.049 557.368 743.619 556.053 744.147C534.543 752.786 511.78 757.876 488.647 759.245L488.65 759.248C488.536 759.256 488.422 759.258 488.308 759.266C488.001 759.284 487.695 759.311 487.388 759.327L487.385 759.324C468.671 760.528 449.894 758.32 431.968 752.796V752.802C431.893 752.779 431.819 752.754 431.745 752.732C431.728 752.726 431.71 752.721 431.693 752.716C416.718 748.102 402.865 740.554 390.916 730.565C388.641 732.093 386.335 733.578 384.002 735.022C365.911 746.245 346.532 755.242 326.287 761.826C326.096 761.89 325.905 761.955 325.713 762.018L325.71 762.015C305.552 768.671 284.612 772.677 263.419 773.926C263.211 773.939 263.003 773.953 262.795 773.963C248.501 774.669 234.177 774.498 219.904 773.453C219.886 773.452 219.867 773.451 219.849 773.45C206.32 772.448 192.861 770.667 179.54 768.125C172.036 771.963 163.788 774.368 155.211 775.099C137.011 776.652 118.985 770.557 105.461 758.279L26.3271 686.434C21.9026 683.123 17.8637 679.234 14.3387 674.817C5.10943 663.25 0.176479 649.071 0.00397096 634.626C-0.00160128 634.32 0.00219445 634.014 0.000915817 633.707C0.00132994 633.506 -0.00133805 633.306 0.000915817 633.105C0.0338823 626.521 1.05101 619.879 3.12633 613.401L3.80152 611.29L32.7643 509.242L33.137 507.98C38.3889 490.783 50.2987 476.894 65.6132 468.911C61.5911 458.537 59.2716 447.509 58.8216 436.254C58.7917 435.506 58.774 434.755 58.7697 434.006C58.6844 419.067 60.8314 404.201 65.1274 389.896C71.1295 369.22 81.0727 349.897 94.411 332.996C107.148 316.715 122.322 302.493 139.398 290.839C156.556 279.107 175.205 269.718 194.849 262.923C215.57 255.695 237.221 251.473 259.141 250.386L260.25 250.34C269.812 250.028 279.383 250.484 288.871 251.696C296.976 252.654 305.108 253.726 313.26 254.91C316.459 255.375 319.548 255.83 322.526 256.273C332.25 249.776 343.64 245.919 355.568 245.29L368.564 244.606C389.732 243.49 410.139 252.656 423.365 269.219C424.079 270.114 424.764 271.028 425.427 271.953C444.527 261.069 464.876 252.536 486.029 246.543C509.366 239.871 533.392 235.906 557.632 234.714C587.803 232.267 618.17 235.159 647.34 243.259C665.751 248.156 682.578 257.728 696.186 271.043L697.512 272.366L698.816 273.707C701.892 276.928 704.758 280.326 707.408 283.873C707.501 283.966 707.595 284.057 707.689 284.148C711.258 287.66 715.107 291.574 719.051 295.656L734.815 240.112C722.133 233.031 711.706 221.723 705.889 207.199C697.668 186.671 700.538 164.434 711.679 147.146C719.302 132.998 731.95 121.959 747.415 116.435L810.861 93.7739L874.313 67.7891C897.579 58.2615 924.243 62.8485 942.99 79.5993C946.823 83.0243 950.178 86.8427 953.047 90.9451L998.948 139.793C1018.57 120.567 1048.58 115.348 1073.9 127.796C1076.61 129.133 1079.2 130.64 1081.66 132.293C1086.42 135.325 1090.81 138.982 1094.71 143.22L1157.73 211.745L1240.62 207.388C1261.79 206.274 1282.2 215.447 1295.43 232.02C1295.74 232.411 1296.04 232.811 1296.34 233.208C1307.41 214.886 1327.01 202.742 1349.13 201.578L1466.65 195.395C1487.83 194.281 1508.24 203.453 1521.46 220.026C1521.96 220.655 1522.45 221.295 1522.92 221.939L1576.1 278.802C1590.76 261.9 1607.19 246.574 1625.1 233.092L1625.11 233.089C1649.51 214.732 1676.36 199.89 1704.89 188.995L1707.59 187.962C1734.62 177.784 1763 171.646 1791.82 169.746L1794.7 169.572C1816.77 168.126 1838.93 170.026 1860.44 175.211L1860.44 175.208C1880.33 179.936 1899.17 188.303 1916.02 199.879C1917.53 200.913 1919.02 201.981 1920.47 203.078L1927.51 178.29C1913.77 171.117 1902.5 159.088 1896.55 143.498C1883.8 110.09 1900.11 72.6166 1933.26 59.1865L2067.47 4.80339C2075.57 1.52095 2084.08 -0.04778 2092.51 0.00110778Z" fill="black"/>
<path fill-rule="evenodd" clip-rule="evenodd" d="M359.027 310.893C355.844 314.937 352.084 318.491 347.869 321.441C340.696 325.378 332.257 324.446 324.511 323.009C310.092 320.787 295.655 318.649 281.165 316.937C231.835 310.358 176.307 334.768 145.985 373.694C132.71 390.514 124.343 412.068 124.466 433.632C125.784 466.589 170.184 483.187 195.496 492.716C218.161 501.988 265.173 515.65 270.936 544.499C272.672 557.894 268.289 571.86 259.656 582.187C244.148 600.932 218.85 611.406 194.886 612.592C172.489 614.005 148.754 608.475 131.852 593.091C113.921 576.181 107.398 550.517 108.982 526.49L95.9663 527.175L65.6926 633.848L78.7086 633.163C87.9529 621.334 102.687 623.412 115.692 626.068C139.636 631.098 164.199 633.075 188.636 631.868C235.255 629.12 282.943 607.982 313.963 572.69C328.859 556.082 340.152 532.575 336.898 509.786C328.213 459.882 250.761 444.783 213.551 425.871C200.619 419.574 183.946 409.585 181.157 394.161C180.579 388.507 181.144 382.794 182.818 377.363C189.042 357.712 211.063 345.895 229.383 340.051C254.103 332.047 289.98 330.613 310.247 349.463C326.419 365.604 330.126 390.777 330.198 412.676L343.205 411.991L372.024 310.208L359.027 310.893ZM543.203 599.088C577.418 635.092 645.718 575.7 669.102 555.188L674.292 536.916C662.944 544.991 631.061 575.63 614.382 562.583C607.636 554.344 613.066 541.221 615.189 532.374C626.167 486.646 640.371 441.601 653.205 396.376C661.338 367.672 664.404 348.659 662.402 339.337C641.089 252.256 465.104 312.381 425.129 354.709C412.356 367.797 393.941 401.959 421.127 411.116C433.524 415.292 449.302 410.183 459.288 402.72C467.09 396.854 472.674 388.518 475.129 379.071L479.709 360.189C485.331 342.029 503.814 330.617 520.953 325.082C540.872 318.864 575.087 314.913 589.326 334.655C602.745 356.346 592.469 384.511 586.098 406.961C536.117 422.253 487.089 440.5 439.272 461.607C409.529 475.57 378.317 493.073 359.655 521.066C349.2 537.019 343.563 556.88 346.424 575.909C347.809 584.586 351.641 592.689 357.469 599.266C363.68 605.926 371.535 610.833 380.245 613.493C406.293 621.574 435.824 616.679 460.649 606.708C488.619 593.312 515.82 578.365 542.123 561.935C537.05 579.722 537.409 592.106 543.203 599.088ZM459.992 577.438C447.176 578.312 433.489 574.171 425.148 564.009C416.673 553.33 415.479 538.651 419.452 525.908C438.463 465.465 527.752 445.108 580.458 426.819L548.148 540.67C523.347 555.675 490.376 577.438 459.992 577.438ZM899.214 128.583L766.877 182.778C778.534 178.215 797.005 171.56 808.571 179.643C817.059 189.436 812.44 205.104 809.35 216.073C783.445 320.97 750.793 424.458 721.298 528.386C716.994 544.219 712.264 562.494 699.648 573.891C686.8 584.716 668.371 586.424 652.22 586.973L648.86 598.666L825.942 589.347L829.273 577.607C817.045 579.258 782.817 581.646 780.775 562.367C779.376 549.881 783.219 536.771 786.734 524.932L899.214 128.583ZM1044.91 186.747C1036.48 198.115 1001.19 231.567 994.737 239.3C988.281 247.032 998.81 235.014 994.737 239.3C978.879 255.232 961.814 272.447 943.123 284.936C927.199 295.898 906.413 307.484 888.291 314.215L945.479 311.203L888.45 512.151C882.196 529.309 875.948 557.542 889.886 572.812C901.257 585.195 918.903 589.31 935.184 588.418C955.269 587.182 974.779 580.053 991.828 569.527C1012.6 556.668 1030.47 539.295 1044.53 519.349L1029.14 520.156C1022.58 528.775 1014.2 535.851 1004.61 540.886C992.744 547.385 963.911 556.564 954.619 540.464C948.56 528.737 951.814 513.47 955.567 501.537L1010.56 307.768L1094.95 303.329L1101.44 280.497L1017.03 284.936L1044.91 186.747ZM1101.44 280.497C1101.44 280.497 1096.89 296.509 1094.95 303.329C1097.57 305.128 1101.44 306.442 1105.45 308.247C1112.04 314.375 1110.34 315.367 1112.46 319.123C1152.62 389.817 1164.95 481.475 1188.19 558.707L1147.84 611.926C1132.43 632.564 1102.18 671.513 1071.31 662.545C1061.05 660.068 1050.66 658.116 1040.3 656.145C1025.13 652.801 1008.89 656.389 995.901 664.741C980.468 674.454 969.634 698.388 986.695 711.794C1043.11 756.358 1139.08 666.521 1168.95 626.856L1400.67 320.925C1413.41 304.231 1427.42 282.239 1449.03 276.406C1454.85 274.985 1460.74 273.87 1466.68 273.065L1470.11 260.996L1352.58 267.181L1349.15 279.249C1356.29 278.754 1379.52 275.74 1381.44 287.151C1382.44 298.837 1373.28 312.137 1366.48 320.709L1238.77 490.182L1193.58 344.095C1189.41 333.078 1188.37 321.124 1190.57 309.551C1192.83 302.642 1197.6 296.83 1203.93 293.26C1215.46 286.61 1227.75 285.744 1240.64 285.058L1244.07 272.99L1101.44 280.497ZM1865.28 418.326C1846.3 443.132 1823.82 466.171 1796.7 482.027C1764.94 500.402 1719.75 508.941 1685.95 491.712C1673.97 485.192 1664.14 475.325 1657.68 463.315C1650.89 450.327 1647.12 435.969 1646.67 421.319C1645.39 389.109 1654.68 356.824 1670.9 329.118C1685.98 303.14 1708.44 281.424 1735.65 268.504C1758.74 257.627 1792.06 250.429 1814.79 265.632C1832.34 282.712 1810.36 308.534 1827.29 324.266C1841.97 336.433 1870.73 330.297 1884.72 321.075C1892.05 316.229 1897.42 308.944 1899.88 300.514C1902.23 292.32 1901.47 283.545 1897.74 275.88C1887.89 255.781 1866.29 244.126 1845.24 239.121C1806.89 229.815 1765.02 236.136 1728.64 250.242C1705.74 258.956 1684.19 270.853 1664.61 285.584C1645.01 300.333 1627.66 317.863 1613.12 337.62C1598.57 357.217 1587.7 379.294 1581.04 402.776C1574.41 423.788 1572.35 445.975 1575 467.847C1577.23 485.277 1583.99 501.817 1594.61 515.82C1604.97 528.932 1618.7 538.986 1634.33 544.912C1651.82 551.515 1670.52 554.259 1689.16 552.954C1726.02 550.815 1761.7 537.21 1792.01 516.374C1827.05 492.286 1848.17 466.862 1865.28 418.326ZM2092.14 65.6884L1957.93 120.071C1970.37 115.612 1989.05 108.801 2001.39 116.824C2005.16 120.994 2006.79 126.823 2005.73 132.346C2002.58 153.649 1997.66 174.652 1991.02 195.137L1914.27 465.567C1909.74 482.844 1903.02 502.359 1888.22 513.53C1875.34 522.577 1858.47 523.594 1843.23 524.266L1839.9 536.006L2018.95 526.622L2022.28 514.882C2014.51 515.365 2006.72 515.4 1998.94 514.985C1990.93 514.826 1973.45 511.389 1972.47 500.786C1971.2 487.91 1976.25 474.324 1979.7 462.16L2024.6 304.23C2057.76 279.169 2115.4 238.686 2159.3 262.611C2182.53 278.41 2167.54 315.066 2161.61 335.912L2128 454.324C2123.65 469.67 2119.65 487.285 2107.97 498.919C2102.99 503.535 2096.98 506.883 2090.44 508.679C2078.38 511.824 2066.17 512.53 2053.8 513.174L2050.47 524.914L2227.94 515.529L2231.28 503.789C2218.2 504.316 2195.93 505.664 2187.69 492.425C2182.4 479.728 2189.98 463.111 2193.46 450.824L2227.06 332.412C2234.66 306.035 2241.22 276.343 2233.15 249.35C2229.69 238.47 2222.34 229.246 2212.51 223.44C2174.82 204.31 2127.54 220.144 2093.54 240.144C2071.29 253.223 2051.28 269.534 2030.12 284.251L2092.14 65.6884ZM2435.96 499.473C2466.59 531.712 2536.95 489.874 2561.38 471.554L2567.05 437.301C2555.67 445.396 2523.85 475.994 2507.14 462.967C2500.38 454.718 2505.83 441.606 2507.99 432.759C2519.13 387.058 2533.16 341.999 2546 296.76C2554.13 268.057 2557.2 249.044 2555.19 239.722C2533.88 152.648 2357.9 212.757 2317.92 255.084C2305.15 268.173 2286.73 302.334 2313.92 311.491C2326.32 315.667 2342.09 310.56 2352.08 303.095C2359.88 297.225 2365.46 288.891 2367.93 279.446L2372.51 260.565C2378.11 242.401 2396.62 230.988 2413.74 225.458C2433.67 219.237 2467.88 215.291 2482.13 235.03C2495.53 256.715 2485.28 284.9 2478.86 307.327C2428.88 322.619 2379.85 340.866 2332.04 361.973C2302.29 375.928 2271.09 393.437 2252.42 421.423C2241.97 437.36 2236.33 457.236 2239.19 476.246C2240.57 484.924 2244.4 493.027 2250.23 499.604C2256.45 506.262 2264.3 511.168 2273.01 513.831C2299.06 521.912 2328.59 517.016 2353.41 507.046C2381.38 493.65 2408.58 478.702 2434.89 462.273C2431.5 474.208 2428.19 487.688 2435.96 499.473ZM2352.75 477.823C2339.93 478.696 2326.25 474.553 2317.9 464.394C2309.43 453.715 2308.23 439.036 2312.21 426.293C2331.21 365.86 2420.5 345.487 2473.2 327.203L2440.89 441.055C2416.1 456.057 2383.12 477.823 2352.75 477.823ZM2729.08 186.193L2593.53 240.867C2602.86 237.458 2612.61 235.324 2622.52 234.523C2636.72 233.779 2643.71 239.722 2643.48 252.353C2640.23 273.334 2635.27 294.015 2628.65 314.187L2595.81 429.991C2593.15 439.949 2589.62 449.653 2585.25 458.988C2578.96 472.463 2565.02 483.761 2551.99 490.454C2547.12 492.958 2538.26 499.324 2528.53 499.707L2704.89 490.454L2708.22 478.714C2692.68 480.136 2670.07 480.133 2660.02 465.83C2652.96 453.302 2657.81 436.812 2661.6 423.966L2702.25 280.76C2714.25 266.818 2754.38 214.821 2777.87 230.507C2789.8 237.295 2804.41 247.505 2818.65 247.014C2828.43 246.396 2837.82 242.881 2845.6 236.916C2860.2 227.034 2870.98 203.773 2854.74 190.323C2808.54 152.048 2737.03 224.372 2710.01 253.395L2729.08 186.193ZM2982.24 84.7951C2973.84 96.1627 2988.71 77.0623 2982.24 84.7951C2933.4 143.243 2867.58 191.581 2795.99 218.175L2882.82 209.251L2825.79 410.199C2819.53 427.366 2813.31 455.572 2827.23 470.86C2838.6 483.243 2856.24 487.358 2872.52 486.466C2892.61 485.23 2912.12 478.103 2929.17 467.575C2949.94 454.721 2967.81 437.341 2981.87 417.397L2966.49 418.204C2959.92 426.82 2951.55 433.895 2941.96 438.934C2930.09 445.431 2901.25 454.614 2891.96 438.512C2885.91 426.77 2889.16 411.53 2892.91 399.585L2947.9 205.816L3032.3 201.377L3038.78 178.545L2954.37 182.984L2982.24 84.7951Z" fill="white"/>
</svg>
